# xmcd
#
# Track frame offsets: 
#        150
#        21773
#        44364
#        72000
#        92607
#        110304
#        130587
#        148884
#        164340
#        182055
#        198406
#        216287
#        234110
#        251480
#        270611
#        282436
#        302930
#        321376
#        340193
#
# Disc length: 4780 seconds
#
# Revision: 0
# Processed by: cddbd v1.5.2PL0 Copyright (c) Steve Scherf et al.
# Submitted via: ExactAudioCopy v1.1
#
DISCID=1712aa13
DTITLE=Various Artist - JOE Top 2000 Volume 11 - CD 2
DYEAR=2019
DGENRE=Top 40
TTITLE0=Abba - Gimme! Gimme! Gimme! (A Man After Midnight)
TTITLE1=Philip Bailey With Phil Collins - Easy Lover
TTITLE2=Bob Dylan - Like A Rolling Stone
TTITLE3=The Scene - Blauw
TTITLE4=Art Garfunkel - Bright Eyes
TTITLE5=Toto - Pamela
TTITLE6=Jamiroquai - Virtual Insanity
TTITLE7=Stromae - Alors On Danse
TTITLE8=LaBelle - Lady Marmalade
TTITLE9=Level 42 - Hot Water
TTITLE10=Texas - Summer Son
TTITLE11=Daryl Hall and John Oates - Adult Education
TTITLE12=The Guess Who - American Woman
TTITLE13=Spin Doctors - Two Princes
TTITLE14=Johnny Cash - Ring Of Fire
TTITLE15=Rob De Nijs - Malle Babbe
TTITLE16=Ronan Keating - When You Say Nothing At All
TTITLE17=Passenger - Let Her Go
TTITLE18=Youssou N'Dour and Neneh Cherry - 7 Seconds
EXTD=
EXTT0=
EXTT1=
EXTT2=
EXTT3=
EXTT4=
EXTT5=
EXTT6=
EXTT7=
EXTT8=
EXTT9=
EXTT10=
EXTT11=
EXTT12=
EXTT13=
EXTT14=
EXTT15=
EXTT16=
EXTT17=
EXTT18=
PLAYORDER=
